# xmcd
#
# Track frame offsets: 
#        150
#        16467
#        35912
#        58392
#        74512
#        92395
#        105855
#        128895
#        141202
#        152502
#        171020
#        186345
#
# Disc length: 2712 seconds
#
# Revision: 7
# Processed by: cddbd v1.5.2PL0 Copyright (c) Steve Scherf et al.
# Submitted via: ExactAudioCopy v1.3
#
DISCID=a40a960c
DTITLE=Laura Cantrell - Not The Tremblin' Kind
DYEAR=1900
DGENRE=Country
TTITLE0=Not The Tremblin' Kind
TTITLE1=Little Bit Of You
TTITLE2=Queen Of The Coast
TTITLE3=Pile Of Woe
TTITLE4=Two Seconds
TTITLE5=Churches Off The Interstate
TTITLE6=The Whiskey Makes You Sweeter
TTITLE7=Do You Ever Think Of Me
TTITLE8=Big Wheel
TTITLE9=My Heart Goes Out To You
TTITLE10=Somewhere, Some Night
TTITLE11=The Way It Is
EXTD=
EXTT0=
EXTT1=
EXTT2=
EXTT3=
EXTT4=
EXTT5=
EXTT6=
EXTT7=
EXTT8=
EXTT9=
EXTT10=
EXTT11=
PLAYORDER=
